<svg width="140" height="140" viewBox="0 0 140 140" fill="none" xmlns="http://www.w3.org/2000/svg">
<circle cx="70" cy="70" r="70" fill="#FFDD60" fill-opacity="0.9"/>
<circle cx="70.5" cy="70.5" r="57.5" fill="#FFAF1E" fill-opacity="0.9"/>
<path d="M50.2441 76H46.3672V70.1797H41.8848V76H38.0078V61.7227H41.8848V67.0156H46.3672V61.7227H50.2441V76ZM61.8164 76H53.3398V61.7227H61.8164V64.8184H57.1973V67.0645H61.4746V70.1602H57.1973V72.8555H61.8164V76ZM73.0762 76L72.373 73.3242H67.7344L67.0117 76H62.7734L67.4316 61.6641H72.5781L77.2949 76H73.0762ZM71.5723 70.1602L70.957 67.8164C70.8919 67.5625 70.7975 67.2012 70.6738 66.7324C70.5501 66.2572 70.4264 65.7689 70.3027 65.2676C70.1855 64.7598 70.0944 64.3431 70.0293 64.0176C69.9707 64.3431 69.8861 64.7467 69.7754 65.2285C69.6712 65.7038 69.5605 66.1758 69.4434 66.6445C69.3327 67.1133 69.235 67.5039 69.1504 67.8164L68.5352 70.1602H71.5723ZM90.9668 68.5586C90.9668 70.2188 90.6576 71.599 90.0391 72.6992C89.4206 73.7995 88.5482 74.6263 87.4219 75.1797C86.3021 75.7266 84.9837 76 83.4668 76H78.8477V61.7227H83.7891C85.3255 61.7227 86.6276 61.9863 87.6953 62.5137C88.763 63.041 89.5736 63.8125 90.127 64.8281C90.6868 65.8438 90.9668 67.0872 90.9668 68.5586ZM86.9629 68.6953C86.9629 67.8294 86.8457 67.1133 86.6113 66.5469C86.3835 65.974 86.0384 65.5475 85.5762 65.2676C85.1139 64.9811 84.5312 64.8379 83.8281 64.8379H82.7051V72.8359H83.5645C84.7363 72.8359 85.5957 72.4974 86.1426 71.8203C86.6895 71.1367 86.9629 70.0951 86.9629 68.6953ZM102.871 71.6641C102.871 72.4388 102.676 73.1745 102.285 73.8711C101.895 74.5612 101.286 75.1211 100.459 75.5508C99.6387 75.9805 98.5775 76.1953 97.2754 76.1953C96.6243 76.1953 96.0514 76.166 95.5566 76.1074C95.0684 76.0488 94.6126 75.9544 94.1895 75.8242C93.7663 75.6875 93.3268 75.5117 92.8711 75.2969V71.8594C93.6458 72.25 94.4271 72.5495 95.2148 72.7578C96.0026 72.9596 96.7155 73.0605 97.3535 73.0605C97.7376 73.0605 98.0501 73.015 98.291 72.9238C98.5384 72.8327 98.7207 72.709 98.8379 72.5527C98.9551 72.39 99.0137 72.2044 99.0137 71.9961C99.0137 71.7487 98.9258 71.5404 98.75 71.3711C98.5807 71.1953 98.3073 71.013 97.9297 70.8242C97.5521 70.6354 97.054 70.401 96.4355 70.1211C95.9082 69.8737 95.4297 69.6198 95 69.3594C94.5768 69.099 94.2122 68.8027 93.9062 68.4707C93.6068 68.1322 93.3757 67.7383 93.2129 67.2891C93.0501 66.8398 92.9688 66.3092 92.9688 65.6973C92.9688 64.7793 93.1934 64.0111 93.6426 63.3926C94.0983 62.7676 94.7298 62.2988 95.5371 61.9863C96.3509 61.6738 97.2884 61.5176 98.3496 61.5176C99.2806 61.5176 100.117 61.6217 100.859 61.8301C101.608 62.0384 102.279 62.276 102.871 62.543L101.689 65.5215C101.077 65.2415 100.475 65.0202 99.8828 64.8574C99.2904 64.6882 98.7402 64.6035 98.2324 64.6035C97.9004 64.6035 97.627 64.6458 97.4121 64.7305C97.2038 64.8086 97.0475 64.916 96.9434 65.0527C96.8457 65.1895 96.7969 65.3457 96.7969 65.5215C96.7969 65.7428 96.8815 65.9414 97.0508 66.1172C97.2266 66.293 97.5163 66.485 97.9199 66.6934C98.3301 66.8952 98.8867 67.1589 99.5898 67.4844C100.286 67.7969 100.879 68.1354 101.367 68.5C101.855 68.8581 102.227 69.291 102.48 69.7988C102.741 70.3001 102.871 70.9219 102.871 71.6641Z" fill="white"/>
</svg>
