<svg width="140" height="140" viewBox="0 0 140 140" fill="none" xmlns="http://www.w3.org/2000/svg">
<circle cx="70" cy="70" r="70" fill="#FFDD60" fill-opacity="0.9"/>
<circle cx="70.5" cy="70.5" r="57.5" fill="#FFAF1E" fill-opacity="0.9"/>
<path d="M49.5898 76H45.7324V64.877H42.2461V61.7227H53.0664V64.877H49.5898V76ZM63.8672 76L63.1641 73.3242H58.5254L57.8027 76H53.5645L58.2227 61.6641H63.3691L68.0859 76H63.8672ZM62.3633 70.1602L61.748 67.8164C61.6829 67.5625 61.5885 67.2012 61.4648 66.7324C61.3411 66.2572 61.2174 65.7689 61.0938 65.2676C60.9766 64.7598 60.8854 64.3431 60.8203 64.0176C60.7617 64.3431 60.6771 64.7467 60.5664 65.2285C60.4622 65.7038 60.3516 66.1758 60.2344 66.6445C60.1237 67.1133 60.026 67.5039 59.9414 67.8164L59.3262 70.1602H62.3633ZM69.6387 76V61.7227H73.5156V76H69.6387ZM76.6113 76V61.7227H80.4688V72.8848H85.9668V76H76.6113ZM97.5879 71.6641C97.5879 72.4388 97.3926 73.1745 97.002 73.8711C96.6113 74.5612 96.0026 75.1211 95.1758 75.5508C94.3555 75.9805 93.2943 76.1953 91.9922 76.1953C91.3411 76.1953 90.7682 76.166 90.2734 76.1074C89.7852 76.0488 89.3294 75.9544 88.9062 75.8242C88.4831 75.6875 88.0436 75.5117 87.5879 75.2969V71.8594C88.3626 72.25 89.1439 72.5495 89.9316 72.7578C90.7194 72.9596 91.4323 73.0605 92.0703 73.0605C92.4544 73.0605 92.7669 73.015 93.0078 72.9238C93.2552 72.8327 93.4375 72.709 93.5547 72.5527C93.6719 72.39 93.7305 72.2044 93.7305 71.9961C93.7305 71.7487 93.6426 71.5404 93.4668 71.3711C93.2975 71.1953 93.0241 71.013 92.6465 70.8242C92.2689 70.6354 91.7708 70.401 91.1523 70.1211C90.625 69.8737 90.1465 69.6198 89.7168 69.3594C89.2936 69.099 88.929 68.8027 88.623 68.4707C88.3236 68.1322 88.0924 67.7383 87.9297 67.2891C87.7669 66.8398 87.6855 66.3092 87.6855 65.6973C87.6855 64.7793 87.9102 64.0111 88.3594 63.3926C88.8151 62.7676 89.4466 62.2988 90.2539 61.9863C91.0677 61.6738 92.0052 61.5176 93.0664 61.5176C93.9974 61.5176 94.834 61.6217 95.5762 61.8301C96.3249 62.0384 96.9954 62.276 97.5879 62.543L96.4062 65.5215C95.7943 65.2415 95.1921 65.0202 94.5996 64.8574C94.0072 64.6882 93.457 64.6035 92.9492 64.6035C92.6172 64.6035 92.3438 64.6458 92.1289 64.7305C91.9206 64.8086 91.7643 64.916 91.6602 65.0527C91.5625 65.1895 91.5137 65.3457 91.5137 65.5215C91.5137 65.7428 91.5983 65.9414 91.7676 66.1172C91.9434 66.293 92.2331 66.485 92.6367 66.6934C93.0469 66.8952 93.6035 67.1589 94.3066 67.4844C95.0033 67.7969 95.5957 68.1354 96.084 68.5C96.5723 68.8581 96.9434 69.291 97.1973 69.7988C97.4577 70.3001 97.5879 70.9219 97.5879 71.6641Z" fill="white"/>
</svg>
